<mxfile host="app.diagrams.net" modified="2023-06-27T03:26:50.509Z" agent="Mozilla/5.0 (Macintosh; Intel Mac OS X 10_15_7) AppleWebKit/537.36 (KHTML, like Gecko) Chrome/114.0.0.0 Safari/537.36" etag="EZYg4GXbQMce5hLKkan9" version="21.5.0" type="github">
  <diagram name="PÃ¡gina-1" id="17fXog37TDW3K-yrCfBY">
    <mxGraphModel dx="1498" dy="1208" grid="1" gridSize="10" guides="1" tooltips="1" connect="1" arrows="1" fold="1" page="1" pageScale="1" pageWidth="1169" pageHeight="827" math="0" shadow="0">
      <root>
        <mxCell id="0" />
        <mxCell id="1" parent="0" />
        <mxCell id="KdRwQ10QUnlJT5LOzABJ-1" value="Usuario" style="shape=umlActor;verticalLabelPosition=bottom;verticalAlign=top;html=1;outlineConnect=0;" vertex="1" parent="1">
          <mxGeometry x="110" y="230" width="30" height="60" as="geometry" />
        </mxCell>
        <mxCell id="KdRwQ10QUnlJT5LOzABJ-2" value="" style="html=1;whiteSpace=wrap;" vertex="1" parent="1">
          <mxGeometry x="220" y="60" width="510" height="410" as="geometry" />
        </mxCell>
        <mxCell id="KdRwQ10QUnlJT5LOzABJ-3" value="Reconocer por comando de voz" style="ellipse;whiteSpace=wrap;html=1;" vertex="1" parent="1">
          <mxGeometry x="405" y="90" width="140" height="70" as="geometry" />
        </mxCell>
        <mxCell id="KdRwQ10QUnlJT5LOzABJ-6" value="Almacenar de datos" style="ellipse;whiteSpace=wrap;html=1;" vertex="1" parent="1">
          <mxGeometry x="560" y="340" width="140" height="70" as="geometry" />
        </mxCell>
        <mxCell id="KdRwQ10QUnlJT5LOzABJ-7" value="OVA" style="shape=umlActor;verticalLabelPosition=bottom;verticalAlign=top;html=1;" vertex="1" parent="1">
          <mxGeometry x="860" y="230" width="30" height="60" as="geometry" />
        </mxCell>
        <mxCell id="KdRwQ10QUnlJT5LOzABJ-20" style="edgeStyle=orthogonalEdgeStyle;rounded=0;orthogonalLoop=1;jettySize=auto;html=1;exitX=1;exitY=0.5;exitDx=0;exitDy=0;entryX=0.289;entryY=0.25;entryDx=0;entryDy=0;entryPerimeter=0;" edge="1" parent="1" source="KdRwQ10QUnlJT5LOzABJ-10" target="KdRwQ10QUnlJT5LOzABJ-7">
          <mxGeometry relative="1" as="geometry" />
        </mxCell>
        <mxCell id="KdRwQ10QUnlJT5LOzABJ-10" value="Registrar usuario por comando de voz&amp;nbsp;" style="ellipse;whiteSpace=wrap;html=1;" vertex="1" parent="1">
          <mxGeometry x="400" y="210" width="140" height="70" as="geometry" />
        </mxCell>
        <mxCell id="KdRwQ10QUnlJT5LOzABJ-11" value="No registrar usuario" style="ellipse;whiteSpace=wrap;html=1;" vertex="1" parent="1">
          <mxGeometry x="290" y="344" width="140" height="70" as="geometry" />
        </mxCell>
        <mxCell id="KdRwQ10QUnlJT5LOzABJ-16" value="" style="endArrow=classic;html=1;rounded=0;entryX=0;entryY=0.5;entryDx=0;entryDy=0;" edge="1" parent="1" target="KdRwQ10QUnlJT5LOzABJ-10">
          <mxGeometry width="50" height="50" relative="1" as="geometry">
            <mxPoint x="140" y="270" as="sourcePoint" />
            <mxPoint x="190" y="220" as="targetPoint" />
          </mxGeometry>
        </mxCell>
        <mxCell id="KdRwQ10QUnlJT5LOzABJ-17" value="" style="endArrow=classic;html=1;rounded=0;entryX=0;entryY=0.5;entryDx=0;entryDy=0;" edge="1" parent="1" target="KdRwQ10QUnlJT5LOzABJ-3">
          <mxGeometry width="50" height="50" relative="1" as="geometry">
            <mxPoint x="140" y="260" as="sourcePoint" />
            <mxPoint x="190" y="210" as="targetPoint" />
          </mxGeometry>
        </mxCell>
        <mxCell id="KdRwQ10QUnlJT5LOzABJ-18" value="Use" style="endArrow=open;endSize=12;dashed=1;html=1;rounded=0;exitX=0.5;exitY=1;exitDx=0;exitDy=0;entryX=0.5;entryY=0;entryDx=0;entryDy=0;" edge="1" parent="1" source="KdRwQ10QUnlJT5LOzABJ-10" target="KdRwQ10QUnlJT5LOzABJ-6">
          <mxGeometry width="160" relative="1" as="geometry">
            <mxPoint x="480" y="300" as="sourcePoint" />
            <mxPoint x="640" y="300" as="targetPoint" />
          </mxGeometry>
        </mxCell>
        <mxCell id="KdRwQ10QUnlJT5LOzABJ-19" value="Extends" style="endArrow=block;endSize=16;endFill=0;html=1;rounded=0;entryX=0.5;entryY=0;entryDx=0;entryDy=0;exitX=0.5;exitY=1;exitDx=0;exitDy=0;" edge="1" parent="1" source="KdRwQ10QUnlJT5LOzABJ-10" target="KdRwQ10QUnlJT5LOzABJ-11">
          <mxGeometry width="160" relative="1" as="geometry">
            <mxPoint x="340" y="320" as="sourcePoint" />
            <mxPoint x="500" y="320" as="targetPoint" />
          </mxGeometry>
        </mxCell>
      </root>
    </mxGraphModel>
  </diagram>
</mxfile>
